<svg width="24" height="24" viewBox="0 0 24 24" fill="none" xmlns="http://www.w3.org/2000/svg">
<path d="M19 15.25C19.4142 15.25 19.75 15.5858 19.75 16V20.1895L21.4697 18.4697C21.7626 18.1768 22.2374 18.1768 22.5303 18.4697C22.8232 18.7626 22.8232 19.2374 22.5303 19.5303L19.5303 22.5303C19.4817 22.5789 19.4261 22.616 19.3691 22.6484C19.342 22.6639 19.3153 22.6803 19.2861 22.6924C19.2541 22.7056 19.2208 22.7141 19.1875 22.7227C19.1744 22.7261 19.1618 22.7317 19.1484 22.7344C19.1429 22.7355 19.1374 22.7363 19.1318 22.7373C19.089 22.7449 19.045 22.75 19 22.75C18.9546 22.75 18.9103 22.745 18.8672 22.7373C18.8617 22.7363 18.8561 22.7355 18.8506 22.7344C18.8372 22.7317 18.8246 22.7261 18.8115 22.7227C18.7783 22.714 18.7449 22.7057 18.7129 22.6924C18.6838 22.6803 18.657 22.664 18.6299 22.6484C18.5732 22.616 18.5181 22.5787 18.4697 22.5303L15.4697 19.5303C15.1768 19.2374 15.1768 18.7626 15.4697 18.4697C15.7626 18.1768 16.2374 18.1768 16.5303 18.4697L18.25 20.1895V16C18.25 15.5858 18.5858 15.25 19 15.25Z" fill="#747B8B"/>
<path d="M15 3.25C15.4641 3.25 15.9091 3.43451 16.2373 3.7627C16.5655 4.09088 16.75 4.53587 16.75 5C16.75 5.33152 16.8818 5.64937 17.1162 5.88379C17.3506 6.11821 17.6685 6.25 18 6.25H19C19.7293 6.25 20.4286 6.53994 20.9443 7.05566C21.4601 7.57139 21.75 8.27065 21.75 9V12.5C21.75 12.9142 21.4142 13.25 21 13.25C20.5858 13.25 20.25 12.9142 20.25 12.5V9C20.25 8.66848 20.1182 8.35063 19.8838 8.11621C19.6788 7.9112 19.41 7.78436 19.124 7.75586L19 7.75H18C17.2707 7.75 16.5714 7.46006 16.0557 6.94434C15.6043 6.49301 15.3261 5.90113 15.2637 5.27148L15.25 5C15.25 4.9337 15.2236 4.87013 15.1768 4.82324C15.1299 4.77636 15.0663 4.75 15 4.75H9C8.9337 4.75 8.87013 4.77636 8.82324 4.82324C8.77636 4.87013 8.75 4.9337 8.75 5L8.73633 5.27148C8.67388 5.90113 8.39567 6.49301 7.94434 6.94434C7.42861 7.46006 6.72935 7.75 6 7.75H5C4.66848 7.75 4.35063 7.88179 4.11621 8.11621C3.88179 8.35063 3.75 8.66848 3.75 9V18C3.75 18.3315 3.88179 18.6494 4.11621 18.8838C4.35063 19.1182 4.66848 19.25 5 19.25H12C12.4142 19.25 12.75 19.5858 12.75 20C12.75 20.4142 12.4142 20.75 12 20.75H5C4.27065 20.75 3.57139 20.4601 3.05566 19.9443C2.53994 19.4286 2.25 18.7293 2.25 18V9C2.25 8.27065 2.53994 7.57139 3.05566 7.05566C3.57139 6.53994 4.27065 6.25 5 6.25H6L6.12402 6.24414C6.41001 6.21564 6.67878 6.0888 6.88379 5.88379C7.0888 5.67878 7.21564 5.41001 7.24414 5.12402L7.25 5C7.25 4.53587 7.43451 4.09088 7.7627 3.7627C8.09088 3.43451 8.53587 3.25 9 3.25H15Z" fill="#747B8B"/>
<path fill-rule="evenodd" clip-rule="evenodd" d="M12 9.25C12.9946 9.25 13.9481 9.64537 14.6514 10.3486C15.3546 11.0519 15.75 12.0054 15.75 13C15.75 13.9946 15.3546 14.9481 14.6514 15.6514C13.9481 16.3546 12.9946 16.75 12 16.75C11.0054 16.75 10.0519 16.3546 9.34863 15.6514C8.64537 14.9481 8.25 13.9946 8.25 13C8.25 12.0054 8.64537 11.0519 9.34863 10.3486C10.0519 9.64537 11.0054 9.25 12 9.25ZM12 10.75C11.4033 10.75 10.8311 10.9872 10.4092 11.4092C9.98722 11.8311 9.75 12.4033 9.75 13C9.75 13.5967 9.98722 14.1689 10.4092 14.5908C10.8311 15.0128 11.4033 15.25 12 15.25C12.5967 15.25 13.1689 15.0128 13.5908 14.5908C14.0128 14.1689 14.25 13.5967 14.25 13C14.25 12.4033 14.0128 11.8311 13.5908 11.4092C13.1689 10.9872 12.5967 10.75 12 10.75Z" fill="#747B8B"/>
</svg>
