<svg width="24" height="24" viewBox="0 0 24 24" fill="none" xmlns="http://www.w3.org/2000/svg">
<path d="M15 15.25C15.4142 15.25 15.75 15.5858 15.75 16C15.75 16.4142 15.4142 16.75 15 16.75H9C8.58579 16.75 8.25 16.4142 8.25 16C8.25 15.5858 8.58579 15.25 9 15.25H15Z" fill="#747B8B"/>
<path d="M15 11.25C15.4142 11.25 15.75 11.5858 15.75 12C15.75 12.4142 15.4142 12.75 15 12.75H9C8.58579 12.75 8.25 12.4142 8.25 12C8.25 11.5858 8.58579 11.25 9 11.25H15Z" fill="#747B8B"/>
<path fill-rule="evenodd" clip-rule="evenodd" d="M13 2.25C13.7293 2.25 14.4286 2.53994 14.9443 3.05566C15.279 3.39029 15.5166 3.80275 15.6436 4.25H17C17.7293 4.25 18.4286 4.53994 18.9443 5.05566C19.4601 5.57139 19.75 6.27065 19.75 7V19C19.75 19.7293 19.4601 20.4286 18.9443 20.9443C18.4286 21.4601 17.7293 21.75 17 21.75H7C6.27065 21.75 5.57139 21.4601 5.05566 20.9443C4.53994 20.4286 4.25 19.7293 4.25 19V7C4.25 6.27065 4.53994 5.57139 5.05566 5.05566C5.57139 4.53994 6.27065 4.25 7 4.25H8.35645C8.48343 3.80275 8.72104 3.39029 9.05566 3.05566C9.57139 2.53994 10.2707 2.25 11 2.25H13ZM7 5.75C6.66848 5.75 6.35063 5.88179 6.11621 6.11621C5.88179 6.35063 5.75 6.66848 5.75 7V19L5.75586 19.124C5.78436 19.41 5.9112 19.6788 6.11621 19.8838C6.35063 20.1182 6.66848 20.25 7 20.25H17C17.3315 20.25 17.6494 20.1182 17.8838 19.8838C18.1182 19.6494 18.25 19.3315 18.25 19V7C18.25 6.66848 18.1182 6.35063 17.8838 6.11621C17.6494 5.88179 17.3315 5.75 17 5.75H15.6436C15.5166 6.19725 15.279 6.60971 14.9443 6.94434C14.4286 7.46006 13.7293 7.75 13 7.75H11C10.2707 7.75 9.57139 7.46006 9.05566 6.94434C8.72104 6.60971 8.48343 6.19725 8.35645 5.75H7ZM11 3.75C10.6685 3.75 10.3506 3.88179 10.1162 4.11621C9.88179 4.35063 9.75 4.66848 9.75 5C9.75 5.33152 9.88179 5.64937 10.1162 5.88379C10.3506 6.11821 10.6685 6.25 11 6.25H13L13.124 6.24414C13.41 6.21564 13.6788 6.0888 13.8838 5.88379C14.1182 5.64937 14.25 5.33152 14.25 5C14.25 4.66848 14.1182 4.35063 13.8838 4.11621C13.6788 3.9112 13.41 3.78436 13.124 3.75586L13 3.75H11Z" fill="#747B8B"/>
</svg>
