<svg width="24" height="24" viewBox="0 0 24 24" fill="none" xmlns="http://www.w3.org/2000/svg">
<path d="M4.96967 17.9697C4.67678 18.2626 4.67678 18.7374 4.96967 19.0303C5.26256 19.3232 5.73744 19.3232 6.03033 19.0303L11.9999 13.0607L17.9697 19.0304C18.2626 19.3233 18.7374 19.3233 19.0303 19.0304C19.3232 18.7376 19.3232 18.2627 19.0303 17.9698L13.0606 12.0001L19.0303 6.03033C19.3232 5.73744 19.3232 5.26256 19.0303 4.96967C18.7374 4.67678 18.2626 4.67678 17.9697 4.96967L11.9999 10.9394L6.03034 4.96978C5.73745 4.67689 5.26257 4.67689 4.96968 4.96978C4.67679 5.26268 4.67679 5.73755 4.96968 6.03044L10.9393 12.0001L4.96967 17.9697Z" fill="#747B8B"/>
</svg>
