<svg width="24" height="24" viewBox="0 0 24 24" fill="none" xmlns="http://www.w3.org/2000/svg">
<path fill-rule="evenodd" clip-rule="evenodd" d="M15.5824 2.50002H12.4176C11.535 2.50002 10.8269 2.50001 10.2543 2.54679C9.66601 2.59486 9.155 2.69603 8.68404 2.936C7.93139 3.31949 7.31947 3.93141 6.93597 4.68406C6.69601 5.15502 6.59484 5.66603 6.54677 6.25436C6.53957 6.34243 6.53348 6.43371 6.52833 6.52834C6.4337 6.53349 6.34241 6.53957 6.25433 6.54677C5.66601 6.59484 5.155 6.69601 4.68404 6.93598C3.93139 7.31947 3.31947 7.93139 2.93597 8.68404C2.69601 9.155 2.59484 9.66601 2.54677 10.2543C2.49999 10.8269 2.49999 11.535 2.5 12.4176V15.5824C2.49999 16.465 2.49999 17.1731 2.54677 17.7457C2.59484 18.334 2.69601 18.845 2.93597 19.316C3.31947 20.0686 3.93139 20.6805 4.68404 21.064C5.155 21.304 5.66601 21.4052 6.25433 21.4532C6.82691 21.5 7.53498 21.5 8.41758 21.5H11.5824C12.465 21.5 13.1731 21.5 13.7457 21.4532C14.334 21.4052 14.845 21.304 15.316 21.064C16.0686 20.6805 16.6805 20.0686 17.064 19.316C17.304 18.845 17.4052 18.334 17.4532 17.7457C17.4604 17.6576 17.4665 17.5663 17.4717 17.4717C17.5663 17.4665 17.6576 17.4605 17.7457 17.4533C18.334 17.4052 18.845 17.304 19.316 17.064C20.0686 16.6806 20.6805 16.0686 21.064 15.316C21.304 14.845 21.4052 14.334 21.4532 13.7457C21.5 13.1731 21.5 12.465 21.5 11.5824V8.41763C21.5 7.53501 21.5 6.82694 21.4532 6.25436C21.4052 5.66603 21.304 5.15502 21.064 4.68406C20.6805 3.93141 20.0686 3.31949 19.316 2.936C18.845 2.69603 18.334 2.59486 17.7457 2.54679C17.1731 2.50001 16.465 2.50002 15.5824 2.50002ZM15.9673 17.4999C15.8428 17.5 15.7146 17.5 15.5824 17.5H12.4176C11.535 17.5 10.8269 17.5 10.2543 17.4533C9.66601 17.4052 9.155 17.304 8.68404 17.064C7.93139 16.6806 7.31947 16.0686 6.93597 15.316C6.69601 14.845 6.59484 14.334 6.54677 13.7457C6.49999 13.1731 6.49999 12.465 6.5 11.5824V8.41765C6.5 8.28545 6.5 8.15717 6.50015 8.03267C6.45798 8.03547 6.41677 8.0385 6.37648 8.04179C5.88092 8.08228 5.58928 8.15822 5.36502 8.27248C4.89462 8.51217 4.51217 8.89462 4.27248 9.36502C4.15822 9.58928 4.08228 9.88092 4.04179 10.3765C4.00058 10.8808 4 11.5275 4 12.45V15.55C4 16.4725 4.00058 17.1192 4.04179 17.6235C4.08228 18.1191 4.15822 18.4107 4.27248 18.635C4.51217 19.1054 4.89462 19.4878 5.36502 19.7275C5.58928 19.8418 5.88092 19.9177 6.37648 19.9582C6.8808 19.9994 7.52754 20 8.45 20H11.55C12.4725 20 13.1192 19.9994 13.6235 19.9582C14.1191 19.9177 14.4107 19.8418 14.635 19.7275C15.1054 19.4878 15.4878 19.1054 15.7275 18.635C15.8418 18.4107 15.9177 18.1191 15.9582 17.6235C15.9615 17.5832 15.9645 17.542 15.9673 17.4999ZM9.36502 4.27251C9.58928 4.15824 9.88092 4.0823 10.3765 4.04181C10.8808 4.00061 11.5275 4.00002 12.45 4.00002H15.55C16.4725 4.00002 17.1192 4.00061 17.6235 4.04181C18.1191 4.0823 18.4107 4.15824 18.635 4.27251C19.1054 4.51219 19.4878 4.89464 19.7275 5.36505C19.8418 5.5893 19.9177 5.88094 19.9582 6.3765C19.9994 6.88082 20 7.52756 20 8.45002V11.55C20 12.4725 19.9994 13.1192 19.9582 13.6235C19.9177 14.1191 19.8418 14.4107 19.7275 14.635C19.4878 15.1054 19.1054 15.4879 18.635 15.7275C18.4107 15.8418 18.1191 15.9177 17.6235 15.9582C17.1192 15.9994 16.4725 16 15.55 16H12.45C11.5275 16 10.8808 15.9994 10.3765 15.9582C9.88092 15.9177 9.58928 15.8418 9.36502 15.7275C8.89462 15.4879 8.51217 15.1054 8.27248 14.635C8.15822 14.4107 8.08228 14.1191 8.04179 13.6235C8.00058 13.1192 8 12.4725 8 11.55V8.45002C8 7.52756 8.00058 6.88082 8.04179 6.3765C8.08228 5.88094 8.15822 5.5893 8.27248 5.36505C8.51217 4.89464 8.89462 4.51219 9.36502 4.27251Z" fill="#747B8B"/>
</svg>
