<svg width="24" height="24" viewBox="0 0 24 24" fill="none" xmlns="http://www.w3.org/2000/svg">
<path d="M10.2803 10.2197C9.98744 9.92678 9.51256 9.92678 9.21967 10.2197C8.92678 10.5126 8.92678 10.9874 9.21967 11.2803L10.9393 13L9.21967 14.7197C8.92678 15.0126 8.92678 15.4874 9.21967 15.7803C9.51256 16.0732 9.98744 16.0732 10.2803 15.7803L12 14.0607L13.7197 15.7803C14.0126 16.0732 14.4874 16.0732 14.7803 15.7803C15.0732 15.4874 15.0732 15.0126 14.7803 14.7197L13.0607 13L14.7803 11.2803C15.0732 10.9874 15.0732 10.5126 14.7803 10.2197C14.4874 9.92678 14.0126 9.92678 13.7197 10.2197L12 11.9393L10.2803 10.2197Z" fill="#FB515F"/>
<path fill-rule="evenodd" clip-rule="evenodd" d="M14.65 2C14.0668 2 13.4891 2.00002 12.9134 2.00003C11.728 2.00006 10.5509 2.00008 9.35 2C9.09252 1.99998 8.82981 1.99997 8.63213 2.01612C8.419 2.03353 8.18583 2.0734 7.95552 2.19074C7.62624 2.35852 7.35852 2.62624 7.19074 2.95552C7.07339 3.18583 7.03353 3.419 7.01612 3.63213C6.99997 3.82982 6.99998 4.0663 7 4.32379L7 5H2.75C2.33579 5 2 5.33579 2 5.75C2 6.16422 2.33579 6.5 2.75 6.5H4.08824L4.64564 15.9758C4.77037 18.0962 4.83273 19.1564 5.28528 19.961C5.68366 20.6692 6.28832 21.2394 7.01876 21.5955C7.84851 22 8.91054 22 11.0346 22H12.9654C15.0895 22 16.1515 22 16.9812 21.5955C17.7117 21.2394 18.3163 20.6692 18.7147 19.961C19.1673 19.1564 19.2296 18.0962 19.3544 15.9758L19.9118 6.5H21.25C21.6642 6.5 22 6.16422 22 5.75C22 5.33579 21.6642 5 21.25 5L17 5L17 4.35C17 4.09252 17 3.82981 16.9839 3.63213C16.9665 3.419 16.9266 3.18583 16.8093 2.95552C16.6415 2.62624 16.3738 2.35852 16.0445 2.19074C15.8142 2.0734 15.581 2.03353 15.3679 2.01612C15.1702 1.99997 14.9075 1.99998 14.65 2ZM15.5 5V4.35C15.5 4.0576 15.4994 3.88341 15.4889 3.75428C15.4764 3.60162 15.4094 3.52451 15.2457 3.51114C15.1166 3.50059 14.9424 3.5 14.65 3.5H9.35C9.0576 3.5 8.88341 3.50059 8.75428 3.51114C8.60162 3.52361 8.52451 3.5906 8.51114 3.75428C8.50059 3.88341 8.5 4.0576 8.5 4.35V5H15.5ZM5.59083 6.5H18.4092L17.857 15.8877C17.7932 16.9719 17.7494 17.6973 17.6718 18.2551C17.5967 18.7948 17.5041 19.0535 17.4073 19.2256C17.1584 19.6683 16.7804 20.0246 16.3239 20.2472C16.1464 20.3337 15.8828 20.4109 15.3396 20.4542C14.7782 20.4989 14.0514 20.5 12.9654 20.5H11.0346C9.94857 20.5 9.22181 20.4989 8.66043 20.4542C8.11724 20.4109 7.85355 20.3337 7.67608 20.2472C7.21955 20.0246 6.84164 19.6683 6.59266 19.2256C6.49586 19.0535 6.40331 18.7948 6.32821 18.2551C6.2506 17.6973 6.20682 16.9719 6.14305 15.8877L5.59083 6.5Z" fill="#FB515F"/>
</svg>
