<svg width="24" height="24" viewBox="0 0 24 24" fill="none" xmlns="http://www.w3.org/2000/svg">
<path d="M12 2.25C12.4142 2.25 12.75 2.58579 12.75 3L12.75 14.1893L16.4697 10.4697C16.7626 10.1768 17.2374 10.1768 17.5303 10.4697C17.8232 10.7626 17.8232 11.2374 17.5303 11.5303L12.5303 16.5303C12.3897 16.671 12.1989 16.75 12 16.75C11.8011 16.75 11.6103 16.671 11.4697 16.5303L6.46967 11.5303C6.17678 11.2374 6.17678 10.7626 6.46967 10.4697C6.76256 10.1768 7.23744 10.1768 7.53033 10.4697L11.25 14.1893L11.25 3C11.25 2.58579 11.5858 2.25 12 2.25Z" fill="#747B8B"/>
<path d="M4.75 16C4.75 15.5858 4.41421 15.25 4 15.25C3.58579 15.25 3.25 15.5858 3.25 16V16.2321C3.24999 17.0449 3.24999 17.7006 3.29336 18.2315C3.33803 18.7781 3.43239 19.2582 3.65873 19.7025C4.01825 20.4081 4.59193 20.9817 5.29754 21.3413C5.74175 21.5676 6.2219 21.662 6.76853 21.7066C7.29944 21.75 7.95506 21.75 8.7679 21.75H15.2321C16.0449 21.75 16.7006 21.75 17.2315 21.7066C17.7781 21.662 18.2582 21.5676 18.7025 21.3413C19.4081 20.9818 19.9817 20.4081 20.3413 19.7025C20.5676 19.2582 20.662 18.7781 20.7066 18.2315C20.75 17.7006 20.75 17.045 20.75 16.2321V16C20.75 15.5858 20.4142 15.25 20 15.25C19.5858 15.25 19.25 15.5858 19.25 16V16.2C19.25 17.0525 19.2494 17.6467 19.2116 18.1093C19.1745 18.5632 19.1054 18.824 19.0048 19.0215C18.7891 19.4448 18.4448 19.789 18.0215 20.0048C17.824 20.1054 17.5632 20.1745 17.1093 20.2116C16.6467 20.2494 16.0525 20.25 15.2 20.25H8.8C7.94755 20.25 7.35331 20.2494 6.89068 20.2116C6.43681 20.1745 6.17604 20.1054 5.97852 20.0048C5.55516 19.789 5.21095 19.4448 4.99524 19.0215C4.8946 18.824 4.82547 18.5632 4.78838 18.1093C4.75058 17.6467 4.75 17.0525 4.75 16.2V16Z" fill="#747B8B"/>
</svg>
