<svg width="24" height="24" viewBox="0 0 24 24" fill="none" xmlns="http://www.w3.org/2000/svg">
<path fill-rule="evenodd" clip-rule="evenodd" d="M17.4177 3.00244C16.9478 3.00244 16.4825 3.095 16.0483 3.27483C15.6141 3.45467 15.2197 3.71825 14.8874 4.05054L3.71963 15.2199C3.579 15.3605 3.5 15.5513 3.5 15.7502V19.7502C3.5 20.1644 3.83579 20.5002 4.25 20.5002H8.25C8.44893 20.5002 8.63971 20.4211 8.78037 20.2804L19.0032 10.0561C19.0124 10.0478 19.0215 10.0392 19.0303 10.0303C19.0392 10.0214 19.0478 10.0124 19.0562 10.0032L19.948 9.1112C20.2803 8.77892 20.5439 8.38441 20.7237 7.95027C20.9036 7.51612 20.9961 7.05079 20.9961 6.58087C20.9961 6.11095 20.9036 5.64562 20.7237 5.21146C20.5439 4.77731 20.2803 4.38282 19.948 4.05054C19.6157 3.71825 19.2213 3.45467 18.7871 3.27483C18.353 3.095 17.8876 3.00244 17.4177 3.00244ZM18.4993 8.43865L18.8873 8.05058C19.0803 7.85758 19.2335 7.62841 19.3379 7.37625C19.4424 7.12408 19.4961 6.85381 19.4961 6.58087C19.4961 6.30792 19.4424 6.03765 19.3379 5.78549C19.2335 5.53332 19.0804 5.3042 18.8874 5.1112C18.6944 4.9182 18.4652 4.7651 18.2131 4.66065C17.9609 4.5562 17.6906 4.50244 17.4177 4.50244C17.1448 4.50244 16.8745 4.5562 16.6223 4.66065C16.3702 4.7651 16.1411 4.91818 15.9481 5.11116L15.56 5.49931L18.4993 8.43865ZM14.4994 6.56005L5 16.0608V19.0002H7.93931L17.4387 9.49939L14.4994 6.56005Z" fill="#747B8B"/>
</svg>
