<svg width="24" height="24" viewBox="0 0 24 24" fill="none" xmlns="http://www.w3.org/2000/svg">
<path d="M11 5.99998C10.5858 5.99998 10.25 6.33576 10.25 6.74998C10.25 7.16419 10.5858 7.49998 11 7.49998H17C17.4142 7.49998 17.75 7.16419 17.75 6.74998C17.75 6.33576 17.4142 5.99998 17 5.99998H11Z" fill="#747B8B"/>
<path d="M10.25 9.99998C10.25 9.58576 10.5858 9.24998 11 9.24998H17C17.4142 9.24998 17.75 9.58576 17.75 9.99998C17.75 10.4142 17.4142 10.75 17 10.75H11C10.5858 10.75 10.25 10.4142 10.25 9.99998Z" fill="#747B8B"/>
<path d="M11 12.5014C10.5858 12.5014 10.25 12.8372 10.25 13.2514C10.25 13.6657 10.5858 14.0014 11 14.0014H14C14.4142 14.0014 14.75 13.6657 14.75 13.2514C14.75 12.8372 14.4142 12.5014 14 12.5014H11Z" fill="#747B8B"/>
<path fill-rule="evenodd" clip-rule="evenodd" d="M12.4176 2.5H15.5824C16.465 2.49999 17.1731 2.49999 17.7457 2.54677C18.334 2.59484 18.845 2.69601 19.316 2.93597C20.0686 3.31947 20.6805 3.93139 21.064 4.68404C21.304 5.155 21.4052 5.66601 21.4532 6.25433C21.5 6.82692 21.5 7.53499 21.5 8.4176V11.5824C21.5 12.465 21.5 13.1731 21.4532 13.7457C21.4052 14.334 21.304 14.845 21.064 15.316C20.6805 16.0686 20.0686 16.6805 19.316 17.064C18.845 17.304 18.334 17.4052 17.7457 17.4532C17.6576 17.4604 17.5663 17.4665 17.4717 17.4717C17.4665 17.5663 17.4604 17.6576 17.4532 17.7456C17.4052 18.334 17.304 18.845 17.064 19.3159C16.6805 20.0686 16.0686 20.6805 15.316 21.064C14.845 21.304 14.334 21.4051 13.7457 21.4532C13.1731 21.5 12.465 21.5 11.5824 21.5H8.41758C7.53498 21.5 6.82691 21.5 6.25433 21.4532C5.66601 21.4051 5.155 21.304 4.68404 21.064C3.93139 20.6805 3.31947 20.0686 2.93597 19.3159C2.69601 18.845 2.59484 18.334 2.54677 17.7456C2.49999 17.1731 2.49999 16.465 2.5 15.5824V12.4176C2.49999 11.535 2.49999 10.8269 2.54677 10.2543C2.59484 9.66599 2.69601 9.15497 2.93597 8.68402C3.31947 7.93137 3.93139 7.31945 4.68404 6.93595C5.155 6.69599 5.66601 6.59482 6.25433 6.54675C6.34241 6.53955 6.4337 6.53346 6.52833 6.52831C6.53348 6.43369 6.53957 6.34241 6.54677 6.25433C6.59484 5.66601 6.69601 5.155 6.93597 4.68404C7.31947 3.93139 7.93139 3.31947 8.68404 2.93597C9.155 2.69601 9.66601 2.59484 10.2543 2.54677C10.8269 2.49999 11.535 2.49999 12.4176 2.5ZM15.5871 17.5C15.7176 17.5 15.8443 17.5 15.9673 17.4998C15.9645 17.542 15.9615 17.5832 15.9582 17.6235C15.9177 18.1191 15.8418 18.4107 15.7275 18.635C15.4878 19.1054 15.1054 19.4878 14.635 19.7275C14.4107 19.8418 14.1191 19.9177 13.6235 19.9582C13.1192 19.9994 12.4725 20 11.55 20H8.45C7.52754 20 6.8808 19.9994 6.37648 19.9582C5.88092 19.9177 5.58928 19.8418 5.36502 19.7275C4.89462 19.4878 4.51217 19.1054 4.27248 18.635C4.15822 18.4107 4.08228 18.1191 4.04179 17.6235C4.00058 17.1192 4 16.4724 4 15.55V12.45C4 11.5275 4.00058 10.8808 4.04179 10.3765C4.08228 9.8809 4.15822 9.58926 4.27248 9.365C4.51217 8.8946 4.89462 8.51215 5.36502 8.27246C5.58928 8.1582 5.88092 8.08226 6.37648 8.04177C6.41677 8.03847 6.45798 8.03544 6.50015 8.03265C6.5 8.15689 6.5 8.2849 6.5 8.41681V11.5824C6.49999 12.465 6.49999 13.1731 6.54677 13.7457C6.59484 14.334 6.69601 14.845 6.93597 15.316C7.31947 16.0686 7.93139 16.6805 8.68404 17.064C9.155 17.304 9.66601 17.4052 10.2543 17.4532C10.8269 17.5 11.535 17.5 12.4175 17.5H15.5871ZM10.3765 4.04179C9.88092 4.08228 9.58928 4.15822 9.36502 4.27248C8.89462 4.51217 8.51217 4.89462 8.27248 5.36502C8.15822 5.58928 8.08228 5.88092 8.04179 6.37648C8.00058 6.8808 8 7.52754 8 8.45V11.55C8 12.4725 8.00058 13.1192 8.04179 13.6235C8.08228 14.1191 8.15822 14.4107 8.27248 14.635C8.51217 15.1054 8.89462 15.4878 9.36502 15.7275C9.58928 15.8418 9.88092 15.9177 10.3765 15.9582C10.8808 15.9994 11.5275 16 12.45 16H15.55C16.4725 16 17.1192 15.9994 17.6235 15.9582C18.1191 15.9177 18.4107 15.8418 18.635 15.7275C19.1054 15.4878 19.4878 15.1054 19.7275 14.635C19.8418 14.4107 19.9177 14.1191 19.9582 13.6235C19.9994 13.1192 20 12.4725 20 11.55V8.45C20 7.52754 19.9994 6.8808 19.9582 6.37648C19.9177 5.88092 19.8418 5.58928 19.7275 5.36502C19.4878 4.89462 19.1054 4.51217 18.635 4.27248C18.4107 4.15822 18.1191 4.08228 17.6235 4.04179C17.1192 4.00058 16.4725 4 15.55 4H12.45C11.5275 4 10.8808 4.00058 10.3765 4.04179Z" fill="#747B8B"/>
</svg>
