<svg width="24" height="24" viewBox="0 0 24 24" fill="none" xmlns="http://www.w3.org/2000/svg">
<path d="M19 14.5C19.4142 14.5 19.75 14.8358 19.75 15.25V19.4395L21.4697 17.7197C21.7626 17.4268 22.2374 17.4268 22.5303 17.7197C22.8232 18.0126 22.8232 18.4874 22.5303 18.7803L19.5303 21.7803C19.4817 21.8289 19.4261 21.866 19.3691 21.8984C19.342 21.9139 19.3153 21.9303 19.2861 21.9424C19.2541 21.9556 19.2208 21.9641 19.1875 21.9727C19.1744 21.9761 19.1618 21.9817 19.1484 21.9844C19.1429 21.9855 19.1374 21.9863 19.1318 21.9873C19.089 21.9949 19.045 22 19 22C18.9546 22 18.9103 21.995 18.8672 21.9873C18.8617 21.9863 18.8561 21.9855 18.8506 21.9844C18.8372 21.9817 18.8246 21.9761 18.8115 21.9727C18.7783 21.964 18.7449 21.9557 18.7129 21.9424C18.6838 21.9303 18.657 21.914 18.6299 21.8984C18.5732 21.866 18.5181 21.8287 18.4697 21.7803L15.4697 18.7803C15.1768 18.4874 15.1768 18.0126 15.4697 17.7197C15.7626 17.4268 16.2374 17.4268 16.5303 17.7197L18.25 19.4395V15.25C18.25 14.8358 18.5858 14.5 19 14.5Z" fill="#747B8B"/>
<path fill-rule="evenodd" clip-rule="evenodd" d="M14 2.25C14.0481 2.25 14.095 2.25502 14.1406 2.26367C14.1435 2.26422 14.1465 2.26406 14.1494 2.26465C14.1638 2.26756 14.1773 2.27363 14.1914 2.27734C14.2245 2.2861 14.2576 2.29447 14.2891 2.30762C14.3186 2.31994 14.3456 2.3367 14.373 2.35254C14.3876 2.3609 14.403 2.36761 14.417 2.37695C14.4577 2.40425 14.4957 2.43519 14.5303 2.46973L19.5303 7.46973C19.666 7.60545 19.75 7.79289 19.75 8V11.5C19.75 11.9142 19.4142 12.25 19 12.25C18.5858 12.25 18.25 11.9142 18.25 11.5V8.75H15C14.5359 8.75 14.0909 8.56549 13.7627 8.2373C13.4345 7.90912 13.25 7.46413 13.25 7V3.75H7C6.66848 3.75 6.35063 3.88179 6.11621 4.11621C5.88179 4.35063 5.75 4.66848 5.75 5V19L5.75586 19.124C5.78436 19.41 5.9112 19.6788 6.11621 19.8838C6.35063 20.1182 6.66848 20.25 7 20.25H12C12.4142 20.25 12.75 20.5858 12.75 21C12.75 21.4142 12.4142 21.75 12 21.75H7C6.27065 21.75 5.57139 21.4601 5.05566 20.9443C4.53994 20.4286 4.25 19.7293 4.25 19V5C4.25 4.27065 4.53994 3.57139 5.05566 3.05566C5.57139 2.53994 6.27065 2.25 7 2.25H14ZM14.75 7C14.75 7.0663 14.7764 7.12987 14.8232 7.17676C14.8701 7.22364 14.9337 7.25 15 7.25H17.1895L14.75 4.81055V7Z" fill="#747B8B"/>
<path d="M15 10.5C15.4142 10.5 15.75 10.8358 15.75 11.25V12.25C15.75 12.6642 15.4142 13 15 13C14.5858 13 14.25 12.6642 14.25 12.25V12H12.75V16.5H13C13.4142 16.5 13.75 16.8358 13.75 17.25C13.75 17.6642 13.4142 18 13 18H11C10.5858 18 10.25 17.6642 10.25 17.25C10.25 16.8358 10.5858 16.5 11 16.5H11.25V12H9.75V12.25C9.75 12.6642 9.41421 13 9 13C8.58579 13 8.25 12.6642 8.25 12.25V11.25C8.25 10.8358 8.58579 10.5 9 10.5H15Z" fill="#747B8B"/>
</svg>
