<svg width="24" height="24" viewBox="0 0 24 24" fill="none" xmlns="http://www.w3.org/2000/svg">
<path fill-rule="evenodd" clip-rule="evenodd" d="M4 15.25C4.41421 15.25 4.75 15.5858 4.75 16V16.2C4.75 17.0525 4.75058 17.6467 4.78838 18.1093C4.82547 18.5632 4.8946 18.824 4.99524 19.0215C5.21095 19.4448 5.55516 19.789 5.97852 20.0048C6.17604 20.1054 6.4368 20.1745 6.89068 20.2116C7.35331 20.2494 7.94755 20.25 8.8 20.25H15.2C16.0525 20.25 16.6467 20.2494 17.1093 20.2116C17.5632 20.1745 17.824 20.1054 18.0215 20.0048C18.4448 19.789 18.7891 19.4448 19.0048 19.0215C19.1054 18.824 19.1745 18.5632 19.2116 18.1093C19.2494 17.6467 19.25 17.0525 19.25 16.2V16C19.25 15.5858 19.5858 15.25 20 15.25C20.4142 15.25 20.75 15.5858 20.75 16V16.2321C20.75 17.045 20.75 17.7006 20.7066 18.2315C20.662 18.7781 20.5676 19.2582 20.3413 19.7025C19.9817 20.4081 19.4081 20.9817 18.7025 21.3413C18.2582 21.5676 17.7781 21.662 17.2315 21.7066C16.7006 21.75 16.0449 21.75 15.2321 21.75H8.7679C7.95506 21.75 7.29944 21.75 6.76853 21.7066C6.2219 21.662 5.74175 21.5676 5.29754 21.3413C4.59193 20.9817 4.01825 20.4081 3.65873 19.7025C3.43239 19.2582 3.33803 18.7781 3.29336 18.2315C3.24999 17.7006 3.24999 17.0449 3.25 16.2321L3.25 16C3.25 15.5858 3.58579 15.25 4 15.25Z" fill="#747B8B"/>
<path d="M6.46967 7.46967C6.17678 7.76256 6.17678 8.23744 6.46967 8.53033C6.76256 8.82322 7.23744 8.82322 7.53033 8.53033L11.25 4.81066L11.25 16C11.25 16.4142 11.5858 16.75 12 16.75C12.4142 16.75 12.75 16.4142 12.75 16L12.75 4.81066L16.4697 8.53033C16.7626 8.82322 17.2374 8.82322 17.5303 8.53033C17.8232 8.23744 17.8232 7.76256 17.5303 7.46967L12.5303 2.46967C12.2374 2.17678 11.7626 2.17678 11.4697 2.46967L6.46967 7.46967Z" fill="#747B8B"/>
</svg>
